<?xml version="1.0" encoding="UTF-8" standalone="no"?>
<svg
   version="1.1"
   width="595.27557pt"
   height="841.88977pt"
   id="svg9"
   viewBox="0 0 595.27557 841.88977"
   sodipodi:docname="logo spital _ALES.cdr"
   xmlns:inkscape="http://www.inkscape.org/namespaces/inkscape"
   xmlns:sodipodi="http://sodipodi.sourceforge.net/DTD/sodipodi-0.dtd"
   xmlns="http://www.w3.org/2000/svg"
   xmlns:svg="http://www.w3.org/2000/svg">
  <defs
     id="defs9" />
  <sodipodi:namedview
     id="namedview9"
     pagecolor="#ffffff"
     bordercolor="#000000"
     borderopacity="0.25"
     inkscape:showpageshadow="2"
     inkscape:pageopacity="0.0"
     inkscape:pagecheckerboard="0"
     inkscape:deskcolor="#d1d1d1"
     inkscape:document-units="pt" />
  <path
     d="m 13.8864,18.2801 4.2956,-1.6597 v 0.6159 l -3.1218,1.1158 c -0.25,0.089 -0.4839,0.1649 -0.703,0.225 0.235,0.0661 0.4691,0.1429 0.703,0.2311 l 3.1218,1.1579 v 0.58 l -4.2956,-1.675 z m 0,1.8618 4.2956,1.648 v 0.6248 l -4.2956,1.749 v -0.6469 l 1.3019,-0.4972 v -1.8088 l -1.3019,-0.466 z m 1.764,1.2359 v 1.4641 l 1.1908,-0.4482 c 0.362,-0.1349 0.6608,-0.237 0.8969,-0.3078 -0.2801,-0.059 -0.555,-0.1381 -0.8269,-0.237 z m -1.764,3.2488 h 4.2956 v 1.9037 c 0,0.383 -0.0389,0.6741 -0.116,0.8731 -0.0771,0.199 -0.2128,0.358 -0.4079,0.477 -0.195,0.1188 -0.411,0.1778 -0.6471,0.1778 -0.3047,0 -0.5618,-0.099 -0.7707,-0.296 -0.2092,-0.197 -0.3411,-0.5008 -0.398,-0.9127 -0.072,0.1508 -0.144,0.2647 -0.214,0.343 -0.152,0.1658 -0.343,0.3228 -0.5721,0.47 l -1.1698,0.7426 v -0.7098 l 0.894,-0.568 c 0.2588,-0.165 0.4558,-0.3019 0.5927,-0.4088 0.1372,-0.108 0.2322,-0.2041 0.2872,-0.2891 0.0538,-0.0839 0.0918,-0.1709 0.1139,-0.2591 0.0131,-0.0638 0.0199,-0.1689 0.0199,-0.3158 v -0.6579 h -1.9077 z m 2.3998,0.57 v 1.2197 c 0,0.26 0.0269,0.4621 0.081,0.6081 0.0531,0.146 0.1389,0.2571 0.258,0.3319 0.1179,0.076 0.246,0.114 0.3849,0.114 0.203,0 0.3711,-0.0729 0.5021,-0.22 0.1309,-0.1468 0.1958,-0.379 0.1958,-0.6959 v -1.3578 z m -2.3998,3.8466 h 4.2956 v 0.5701 h -4.2956 z m 0,1.0999 4.2956,1.648 v 0.6248 l -4.2956,1.749 V 33.518 l 1.3019,-0.4972 V 31.212 l -1.3019,-0.466 z m 1.764,1.2359 v 1.4641 l 1.1908,-0.4482 c 0.362,-0.1349 0.6608,-0.237 0.8969,-0.3078 -0.2801,-0.059 -0.555,-0.1381 -0.8269,-0.237 z m -1.764,3.2309 h 4.2956 v 0.5839 l -3.3718,2.2539 h 3.3718 v 0.5459 h -4.2956 v -0.5839 l 3.3718,-2.2539 h -3.3718 z m 0,5.4306 h 3.7916 v -1.4159 h 0.504 v 3.4016 h -0.504 v -1.4159 h -3.7916 z m 0,1.6569 4.2956,1.648 v 0.6248 l -4.2956,1.7489 v -0.6468 l 1.3019,-0.4972 v -1.8088 l -1.3019,-0.466 z m 1.764,1.2359 v 1.4641 l 1.1908,-0.4482 c 0.362,-0.1349 0.6608,-0.237 0.8969,-0.3078 -0.2801,-0.059 -0.555,-0.1381 -0.8269,-0.237 z m -1.764,3.7706 4.2956,1.6481 v 0.6247 l -4.2956,1.749 v -0.6469 l 1.3019,-0.4972 v -1.8087 l -1.3019,-0.4661 z m 1.764,1.2359 v 1.4641 l 1.1908,-0.4482 c 0.362,-0.1349 0.6608,-0.2369 0.8969,-0.3078 -0.2801,-0.059 -0.555,-0.138 -0.8269,-0.237 z m -1.764,3.2128 h 4.2956 v 0.57 h -3.7916 v 2.1119 h -0.504 z m 0,3.3727 h 4.2956 v 3.1016 h -0.504 v -2.5316 h -1.3198 v 2.3698 h -0.504 v -2.3698 h -1.4638 v 2.6337 h -0.504 z m 0,3.5186 4.2956,1.6481 v 0.6247 l -4.2956,1.749 v -0.6469 l 1.3019,-0.4972 v -1.8087 l -1.3019,-0.4661 z m 1.764,1.2359 v 1.4641 l 1.1908,-0.4482 c 0.362,-0.1349 0.6608,-0.2369 0.8969,-0.3078 -0.2801,-0.059 -0.555,-0.138 -0.8269,-0.237 z m -0.3841,3.0509 0.0479,0.5338 c -0.216,0.0249 -0.3929,0.0842 -0.5318,0.1772 -0.1381,0.0929 -0.25,0.2369 -0.3362,0.432 -0.0848,0.1947 -0.1278,0.4147 -0.1278,0.6587 0,0.2172 0.032,0.4079 0.0969,0.5741 0.0649,0.1658 0.1539,0.2888 0.267,0.3699 0.1128,0.081 0.2359,0.1219 0.368,0.1219 0.134,0 0.2508,-0.0389 0.352,-0.1168 0.0998,-0.078 0.184,-0.2069 0.2529,-0.3869 0.0439,-0.1151 0.1139,-0.3703 0.2089,-0.7651 0.0952,-0.3949 0.184,-0.671 0.2682,-0.8289 0.108,-0.2049 0.2417,-0.3571 0.4008,-0.4569 0.159,-0.1012 0.3381,-0.1511 0.5352,-0.1511 0.2177,0 0.4209,0.0621 0.6088,0.1851 0.1888,0.123 0.332,0.3019 0.43,0.5389 0.0978,0.2358 0.1469,0.4989 0.1469,0.788 0,0.3178 -0.051,0.599 -0.1539,0.8419 -0.1021,0.2429 -0.2532,0.43 -0.453,0.561 -0.199,0.1309 -0.4249,0.2009 -0.6769,0.2109 l -0.042,-0.546 c 0.271,-0.0289 0.476,-0.1281 0.614,-0.2971 0.1389,-0.1689 0.2078,-0.4189 0.2078,-0.7489 0,-0.3438 -0.0629,-0.595 -0.1888,-0.7517 -0.1261,-0.1571 -0.2781,-0.2361 -0.4561,-0.2361 -0.1539,0 -0.2809,0.0561 -0.381,0.1669 -0.0989,0.11 -0.2021,0.3952 -0.3058,0.8569 -0.1052,0.4621 -0.1962,0.779 -0.2741,0.951 -0.1151,0.2489 -0.26,0.434 -0.4369,0.5531 -0.176,0.1188 -0.379,0.1777 -0.6091,0.1777 -0.2288,0 -0.4428,-0.0649 -0.6449,-0.1959 -0.2018,-0.1309 -0.3589,-0.318 -0.4708,-0.5629 -0.112,-0.2449 -0.1681,-0.5199 -0.1681,-0.8269 0,-0.388 0.0569,-0.7129 0.17,-0.9748 0.1129,-0.2631 0.2829,-0.468 0.5108,-0.6171 0.2271,-0.15 0.4842,-0.2279 0.7711,-0.2359 z m -1.3799,3.7165 4.2956,1.6481 v 0.6248 l -4.2956,1.7489 v -0.6468 l 1.3019,-0.4972 v -1.8088 l -1.3019,-0.466 z m 1.764,1.2359 v 1.4641 l 1.1908,-0.4481 c 0.362,-0.1349 0.6608,-0.237 0.8969,-0.3079 -0.2801,-0.0589 -0.555,-0.138 -0.8269,-0.2369 z"
     style="fill:#1b1918;fill-rule:evenodd"
     id="path1" />
  <text
     x="134.82851"
     y="351.35519"
     id="text1"><tspan
       font-family="Arial"
       font-size="10px"
       fill="#1b1918"
       id="tspan1">C100 M50 Y0 K0pentru tipar</tspan></text>
  <path
     d="m 184.2395,226.4922 h -1.2455 v 10.4641 h 1.7367 c 1.2997,0 2.4373,-0.1214 3.4138,-0.362 0.9604,-0.2367 1.7685,-0.5891 2.4233,-1.0551 0.6339,-0.451 1.1081,-1.0018 1.423,-1.6489 0.3186,-0.6545 0.4777,-1.4168 0.4777,-2.283 0,-0.9176 -0.1531,-1.6968 -0.4601,-2.3395 -0.3027,-0.6301 -0.7557,-1.1406 -1.3603,-1.5321 -0.6288,-0.4073 -1.4701,-0.7152 -2.5215,-0.9232 -1.0797,-0.2138 -2.376,-0.3203 -3.8871,-0.3203 z m 36.1766,48.4154 h 6.8335 c 5.4419,0 7.6354,4.0524 7.6354,11.2076 0,7.1553 -2.1935,11.2077 -7.6354,11.2077 h -6.8335 z m -1.2898,-35.4801 c 0,-8.6426 3.0796,-12.0399 7.9305,-12.0399 4.8509,0 7.9305,3.3973 7.9305,12.0399 0,8.6423 -3.0796,12.0396 -7.9305,12.0396 -4.8509,0 -7.9305,-3.3973 -7.9305,-12.0396 z M 133.774,219.0416 h 37.9332 v 40.8172 0.5 h 11.2868 v -16.2607 h 0.754 l 11.8542,16.2607 h 13.3639 l -13.773,-18.0967 c 1.1342,-0.515 2.1549,-1.1114 3.0606,-1.7889 1.0664,-0.798 1.9698,-1.7059 2.7082,-2.7241 0.7427,-1.0233 1.3003,-2.1322 1.6719,-3.3259 0.3708,-1.192 0.5564,-2.4653 0.5564,-3.82 0,-0.9419 -0.1182,-1.8646 -0.356,-2.7666 -0.2361,-0.8969 -0.5919,-1.7716 -1.0675,-2.6229 -0.4751,-0.8504 -1.0474,-1.6313 -1.7147,-2.3414 -0.6664,-0.7095 -1.4301,-1.351 -2.2884,-1.9247 -0.805,-0.5443 -1.6685,-1.0089 -2.5914,-1.3949 -0.4516,-0.1888 -0.919,-0.3592 -1.4021,-0.5111 h 21.4645 c -4.7863,2.6796 -8.7633,8.3591 -8.7633,20.3859 0,22.0527 13.3722,22.7682 20.5855,22.7682 5.5743,0 14.8246,-0.4303 18.7416,-10.8012 v 22.345 c -2.2496,-7.3508 -7.0217,-10.2297 -14.1194,-10.2297 h -23.1588 v 44.3174 h -4.8243 v -10.1245 h -20.1214 v -6.0786 h 18.6871 v -11.0177 h -18.6871 v -6.0789 h 20.1214 v -11.0177 h -32.0173 v 44.3174 h -4.9206 v -44.3174 h -16.7471 l -4.9354,26.278 h -0.0842 l -4.9354,-26.278 h -6.2819 v -2.8083 c 3.2071,1.0573 7.2301,1.4939 12.0983,1.4939 14.7963,0 21.7865,-4.0292 21.7865,-17.2848 v -25.8687 h -14.3881 v 25.2263 c 0,5.3722 -2.7042,7.0659 -7.3984,7.0659 -4.6939,0 -7.3979,-1.6937 -7.3979,-7.0659 v -25.2263 h -4.7004 z m 112.0244,79.164 v 9.6216 h -8.2409 c 3.9044,-1.408 6.679,-4.5204 8.2409,-9.6216 z m -89.8396,9.6216 h -6.2368 l 6.1526,-31.3999 h 0.0842 z m -15.6141,0 h -6.237 v -31.3999 h 0.0844 z m 98.5343,-88.7856 h 6.9194 v 8.4189 c -1.6127,-4.2693 -4.1276,-6.8559 -6.9194,-8.4189 z m -105.105,99.5113 h 112.0244 v -6.5545 H 133.774 Z m 3.5756,-105.0675 1.9321,-0.1919 c 0.1165,0.6463 0.3495,1.1191 0.7036,1.423 0.3538,0.3036 0.8311,0.4544 1.4318,0.4544 0.6349,0 1.1146,-0.135 1.4366,-0.4043 0.322,-0.2695 0.4841,-0.5847 0.4841,-0.9456 0,-0.233 -0.0686,-0.4292 -0.2032,-0.5939 -0.1347,-0.1621 -0.3722,-0.3035 -0.7104,-0.4223 -0.2307,-0.0822 -0.756,-0.2239 -1.578,-0.4295 -1.0573,-0.2647 -1.7997,-0.589 -2.2266,-0.9751 -0.6007,-0.5411 -0.9,-1.2013 -0.9,-1.98 0,-0.5003 0.1417,-0.9706 0.4226,-1.4068 0.2832,-0.4363 0.6897,-0.7674 1.2217,-0.9958 0.5321,-0.2285 1.1716,-0.3427 1.9253,-0.3427 1.2263,0 2.1515,0.2718 2.7703,0.8178 0.6211,0.5456 0.9454,1.2719 0.9774,2.1832 l -1.9868,0.0686 c -0.0845,-0.5071 -0.265,-0.8702 -0.5414,-1.0916 -0.2764,-0.2217 -0.6919,-0.3337 -1.2447,-0.3337 -0.5709,0 -1.0185,0.1188 -1.3405,0.3564 -0.2078,0.153 -0.3129,0.3563 -0.3129,0.612 0,0.233 0.0983,0.4317 0.2948,0.5961 0.2488,0.2126 0.854,0.4317 1.8155,0.6602 0.9616,0.2259 1.6716,0.4634 2.1308,0.7055 0.4612,0.2444 0.8221,0.5757 1.0826,0.9981 0.2602,0.4226 0.3903,0.9434 0.3903,1.5622 0,0.5618 -0.155,1.0893 -0.468,1.5803 -0.3129,0.4912 -0.7537,0.8566 -1.3246,1.0942 -0.5709,0.2395 -1.2835,0.3583 -2.1353,0.3583 -1.2402,0 -2.1926,-0.2855 -2.8571,-0.8587 -0.6647,-0.5709 -1.0599,-1.4045 -1.19,-2.4984 z m 15.7697,3.179 v -9.8112 h 3.1768 c 1.2036,0 1.9868,0.0479 2.3522,0.1459 0.5618,0.1486 1.0324,0.4683 1.4117,0.9616 0.379,0.4935 0.5686,1.1307 0.5686,1.9116 0,0.603 -0.1097,1.1078 -0.3266,1.5188 -0.2194,0.4111 -0.4957,0.7331 -0.8314,0.9684 -0.3356,0.233 -0.6783,0.3883 -1.0255,0.4634 -0.4726,0.0939 -1.1554,0.1418 -2.0509,0.1418 h -1.2881 v 3.6997 z m 1.9868,-8.1533 v 2.7956 h 1.0803 c 0.779,0 1.2974,-0.0527 1.5599,-0.1554 0.2628,-0.1029 0.4683,-0.2627 0.6166,-0.4841 0.1485,-0.2194 0.2239,-0.4728 0.2239,-0.7651 0,-0.3586 -0.1052,-0.6534 -0.3129,-0.8861 -0.2101,-0.233 -0.4729,-0.3793 -0.7949,-0.4385 -0.235,-0.0434 -0.7078,-0.0664 -1.4204,-0.0664 z m 13.1936,8.1533 v -9.8112 h 1.9871 v 9.8112 z m 12.1913,0 v -8.1533 h -2.905 v -1.6579 h 7.7831 v 1.6579 h -2.8913 v 8.1533 z m 20.0953,0 h -2.1398 l -0.8476,-2.2337 h -3.9348 l -0.8155,2.2337 h -2.101 l 3.8094,-9.8112 h 2.0988 z m -3.6314,-3.8916 -1.3632,-3.6312 -1.3246,3.6312 z m 10.8527,3.8916 v -9.729 h 1.9871 v 8.0711 h 4.9192 v 1.6579 z m 14.4247,-9.8112 h 1.9868 v 5.3166 c 0,0.845 0.0252,1.391 0.0731,1.6399 0.0845,0.4019 0.2832,0.7262 0.5984,0.9683 0.3175,0.2443 0.7492,0.3654 1.2971,0.3654 0.555,0 0.9754,-0.1143 1.2586,-0.3447 0.2832,-0.2308 0.4521,-0.5117 0.5091,-0.8476 0.0573,-0.3356 0.0867,-0.8906 0.0867,-1.667 v -5.4309 h 1.9871 v 5.159 c 0,1.1787 -0.0524,2.0121 -0.1598,2.4985 -0.1075,0.4867 -0.3039,0.8977 -0.5916,1.2333 -0.2855,0.3357 -0.669,0.6007 -1.1486,0.7994 -0.1083,0.0448 -0.224,0.0845 -0.347,0.1191 -0.248,-0.002 -0.4901,-0.003 -0.7254,-0.003 -0.7293,0 -1.5222,0.008 -2.3573,0.0437 -0.2188,-0.0488 -0.4107,-0.1103 -0.5763,-0.1848 -0.4818,-0.2169 -0.8634,-0.4978 -1.1443,-0.845 -0.2809,-0.347 -0.4635,-0.7078 -0.5525,-1.0894 -0.1304,-0.5618 -0.1941,-1.3929 -0.1941,-2.4916 z m 16.0596,9.8112 v -9.729 h 1.9871 v 8.0711 h 4.9193 v 1.6579 z M 133.774,203.4173 h 112.0244 v -2.9795 H 133.774 Z"
     style="fill:#006ab3;fill-rule:evenodd"
     id="path2" />
  <path
     d="m 394.7012,226.4922 h -1.2456 v 10.4641 h 1.7368 c 1.2997,0 2.4372,-0.1214 3.4138,-0.362 0.9604,-0.2367 1.7685,-0.5891 2.4233,-1.0551 0.6338,-0.451 1.1081,-1.0018 1.423,-1.6489 0.3186,-0.6545 0.4776,-1.4168 0.4776,-2.283 0,-0.9176 -0.153,-1.6968 -0.46,-2.3395 -0.3028,-0.6301 -0.7557,-1.1406 -1.3604,-1.5321 -0.6287,-0.4073 -1.47,-0.7152 -2.5214,-0.9232 -1.0797,-0.2138 -2.376,-0.3203 -3.8871,-0.3203 z m 36.1766,48.4154 h 6.8334 c 5.442,0 7.6354,4.0524 7.6354,11.2076 0,7.1553 -2.1934,11.2077 -7.6354,11.2077 h -6.8334 z m -1.2898,-35.4801 c 0,-8.6426 3.0796,-12.0399 7.9305,-12.0399 4.8509,0 7.9305,3.3973 7.9305,12.0399 0,8.6423 -3.0796,12.0396 -7.9305,12.0396 -4.8509,0 -7.9305,-3.3973 -7.9305,-12.0396 z m -85.3523,-20.3859 h 37.9332 v 40.8172 0.5 h 11.2867 v -16.2607 h 0.754 l 11.8542,16.2607 h 13.364 l -13.773,-18.0967 c 1.1341,-0.515 2.1549,-1.1114 3.0606,-1.7889 1.0664,-0.798 1.9698,-1.7059 2.7082,-2.7241 0.7427,-1.0233 1.3002,-2.1322 1.6719,-3.3259 0.3707,-1.192 0.5564,-2.4653 0.5564,-3.82 0,-0.9419 -0.1182,-1.8646 -0.356,-2.7666 -0.2362,-0.8969 -0.5919,-1.7716 -1.0676,-2.6229 -0.475,-0.8504 -1.0474,-1.6313 -1.7146,-2.3414 -0.6665,-0.7095 -1.4301,-1.351 -2.2884,-1.9247 -0.8051,-0.5443 -1.6685,-1.0089 -2.5915,-1.3949 -0.4515,-0.1888 -0.919,-0.3592 -1.402,-0.5111 h 21.4645 c -4.7863,2.6796 -8.7633,8.3591 -8.7633,20.3859 0,22.0527 13.3722,22.7682 20.5855,22.7682 5.5743,0 14.8246,-0.4303 18.7415,-10.8012 v 22.345 c -2.2495,-7.3508 -7.0217,-10.2297 -14.1193,-10.2297 h -23.1588 v 44.3174 h -4.8243 v -10.1245 h -20.1214 v -6.0786 h 18.6871 v -11.0177 h -18.6871 v -6.0789 h 20.1214 v -11.0177 h -32.0173 v 44.3174 h -4.9207 v -44.3174 h -16.7471 l -4.9354,26.278 h -0.0842 l -4.9354,-26.278 h -6.2818 v -2.8083 c 3.2071,1.0573 7.23,1.4939 12.0983,1.4939 14.7962,0 21.7865,-4.0292 21.7865,-17.2848 v -25.8687 h -14.3881 v 25.2263 c 0,5.3722 -2.7043,7.0659 -7.3984,7.0659 -4.6939,0 -7.3979,-1.6937 -7.3979,-7.0659 v -25.2263 h -4.7004 z m 112.0243,79.164 v 9.6216 h -8.2409 c 3.9045,-1.408 6.679,-4.5204 8.2409,-9.6216 z m -89.8395,9.6216 h -6.2368 l 6.1526,-31.3999 h 0.0842 z m -15.6141,0 h -6.2371 v -31.3999 h 0.0845 z m 98.5343,-88.7856 h 6.9193 v 8.4189 c -1.6126,-4.2693 -4.1275,-6.8559 -6.9193,-8.4189 z m -105.105,99.5113 H 456.26 v -6.5545 H 344.2357 Z m 3.5756,-105.0675 1.9321,-0.1919 c 0.1165,0.6463 0.3495,1.1191 0.7036,1.423 0.3537,0.3036 0.8311,0.4544 1.4317,0.4544 0.635,0 1.1146,-0.135 1.4366,-0.4043 0.3221,-0.2695 0.4842,-0.5847 0.4842,-0.9456 0,-0.233 -0.0686,-0.4292 -0.2032,-0.5939 -0.1347,-0.1621 -0.3722,-0.3035 -0.7104,-0.4223 -0.2308,-0.0822 -0.756,-0.2239 -1.5781,-0.4295 -1.0573,-0.2647 -1.7997,-0.589 -2.2266,-0.9751 -0.6006,-0.5411 -0.9,-1.2013 -0.9,-1.98 0,-0.5003 0.1418,-0.9706 0.4227,-1.4068 0.2832,-0.4363 0.6896,-0.7674 1.2217,-0.9958 0.5321,-0.2285 1.1716,-0.3427 1.9253,-0.3427 1.2263,0 2.1515,0.2718 2.7703,0.8178 0.6211,0.5456 0.9454,1.2719 0.9774,2.1832 l -1.9868,0.0686 c -0.0845,-0.5071 -0.2651,-0.8702 -0.5414,-1.0916 -0.2764,-0.2217 -0.692,-0.3337 -1.2447,-0.3337 -0.5709,0 -1.0185,0.1188 -1.3405,0.3564 -0.2078,0.153 -0.313,0.3563 -0.313,0.612 0,0.233 0.0984,0.4317 0.2948,0.5961 0.2489,0.2126 0.8541,0.4317 1.8156,0.6602 0.9615,0.2259 1.6716,0.4634 2.1308,0.7055 0.4612,0.2444 0.8221,0.5757 1.0826,0.9981 0.2602,0.4226 0.3903,0.9434 0.3903,1.5622 0,0.5618 -0.1551,1.0893 -0.468,1.5803 -0.3129,0.4912 -0.7537,0.8566 -1.3246,1.0942 -0.5709,0.2395 -1.2836,0.3583 -2.1354,0.3583 -1.2401,0 -2.1926,-0.2855 -2.857,-0.8587 -0.6647,-0.5709 -1.0599,-1.4045 -1.19,-2.4984 z m 15.7697,3.179 v -9.8112 h 3.1768 c 1.2036,0 1.9868,0.0479 2.3522,0.1459 0.5618,0.1486 1.0324,0.4683 1.4116,0.9616 0.379,0.4935 0.5687,1.1307 0.5687,1.9116 0,0.603 -0.1097,1.1078 -0.3266,1.5188 -0.2194,0.4111 -0.4958,0.7331 -0.8314,0.9684 -0.3356,0.233 -0.6783,0.3883 -1.0256,0.4634 -0.4725,0.0939 -1.1554,0.1418 -2.0508,0.1418 h -1.2881 v 3.6997 z m 1.9868,-8.1533 v 2.7956 h 1.0803 c 0.779,0 1.2974,-0.0527 1.5599,-0.1554 0.2628,-0.1029 0.4683,-0.2627 0.6165,-0.4841 0.1486,-0.2194 0.224,-0.4728 0.224,-0.7651 0,-0.3586 -0.1052,-0.6534 -0.313,-0.8861 -0.21,-0.233 -0.4728,-0.3793 -0.7948,-0.4385 -0.235,-0.0434 -0.7078,-0.0664 -1.4204,-0.0664 z m 13.1936,8.1533 v -9.8112 h 1.9871 v 9.8112 z m 12.1912,0 v -8.1533 h -2.9049 v -1.6579 h 7.7831 v 1.6579 h -2.8914 v 8.1533 z m 20.0954,0 h -2.1399 l -0.8475,-2.2337 h -3.9348 l -0.8155,2.2337 h -2.1011 l 3.8095,-9.8112 h 2.0988 z m -3.6315,-3.8916 -1.3631,-3.6312 -1.3247,3.6312 z m 10.8528,3.8916 v -9.729 h 1.987 v 8.0711 h 4.9193 v 1.6579 z m 14.4246,-9.8112 h 1.9868 v 5.3166 c 0,0.845 0.0253,1.391 0.0732,1.6399 0.0844,0.4019 0.2831,0.7262 0.5984,0.9683 0.3174,0.2443 0.7491,0.3654 1.2971,0.3654 0.555,0 0.9754,-0.1143 1.2586,-0.3447 0.2831,-0.2308 0.4521,-0.5117 0.5091,-0.8476 0.0572,-0.3356 0.0867,-0.8906 0.0867,-1.667 v -5.4309 h 1.9871 v 5.159 c 0,1.1787 -0.0524,2.0121 -0.1599,2.4985 -0.1074,0.4867 -0.3039,0.8977 -0.5916,1.2333 -0.2854,0.3357 -0.6689,0.6007 -1.1486,0.7994 -0.1082,0.0448 -0.2239,0.0845 -0.3469,0.1191 -0.2481,-0.002 -0.4901,-0.003 -0.7254,-0.003 -0.7294,0 -1.5222,0.008 -2.3573,0.0437 -0.2188,-0.0488 -0.4107,-0.1103 -0.5763,-0.1848 -0.4819,-0.2169 -0.8634,-0.4978 -1.1443,-0.845 -0.2809,-0.347 -0.4635,-0.7078 -0.5525,-1.0894 -0.1304,-0.5618 -0.1942,-1.3929 -0.1942,-2.4916 z m 16.0597,9.8112 v -9.729 h 1.9871 v 8.0711 h 4.9192 v 1.6579 z M 344.2357,203.4173 H 456.26 v -2.9795 H 344.2357 Z"
     style="fill:#006bb5;fill-rule:evenodd"
     id="path3" />
  <path
     d="m 89.4135,409.4016 h 194.8453 v 201.885 H 89.4135 Z"
     style="fill:#006ab3;fill-rule:evenodd"
     id="path4" />
  <path
     d="m 185.8399,478.4304 h -1.2455 v 10.4641 h 1.7368 c 1.2997,0 2.4372,-0.1214 3.4137,-0.362 0.9604,-0.2367 1.7686,-0.5891 2.4234,-1.0551 0.6338,-0.451 1.108,-1.0017 1.423,-1.6489 0.3186,-0.6545 0.4776,-1.4168 0.4776,-2.283 0,-0.9176 -0.1531,-1.6968 -0.46,-2.3395 -0.3028,-0.6301 -0.7558,-1.1406 -1.3604,-1.5321 -0.6287,-0.4073 -1.47,-0.7152 -2.5214,-0.9232 -1.0797,-0.2138 -2.376,-0.3203 -3.8872,-0.3203 z m 36.1766,48.4154 h 6.8335 c 5.442,0 7.6354,4.0524 7.6354,11.2076 0,7.1553 -2.1934,11.2077 -7.6354,11.2077 h -6.8335 z m -1.2897,-35.4801 c 0,-8.6426 3.0795,-12.0399 7.9305,-12.0399 4.8509,0 7.9304,3.3973 7.9304,12.0399 0,8.6423 -3.0795,12.0396 -7.9304,12.0396 -4.851,0 -7.9305,-3.3973 -7.9305,-12.0396 z m -85.3523,-20.3859 h 37.9332 v 40.8172 0.5 h 11.2867 v -16.2607 h 0.754 l 11.8542,16.2607 h 13.364 l -13.773,-18.0967 c 1.1341,-0.515 2.1549,-1.1114 3.0605,-1.7889 1.0664,-0.798 1.9698,-1.7059 2.7083,-2.7241 0.7426,-1.0233 1.3002,-2.1322 1.6718,-3.3259 0.3708,-1.192 0.5565,-2.4653 0.5565,-3.82 0,-0.9419 -0.1182,-1.8646 -0.3561,-2.7666 -0.2361,-0.8968 -0.5918,-1.7716 -1.0675,-2.6229 -0.4751,-0.8504 -1.0474,-1.6313 -1.7147,-2.3414 -0.6664,-0.7095 -1.43,-1.351 -2.2884,-1.9247 -0.805,-0.5443 -1.6684,-1.0089 -2.5914,-1.3949 -0.4516,-0.1888 -0.919,-0.3592 -1.402,-0.5111 h 21.4645 c -4.7863,2.6796 -8.7633,8.3591 -8.7633,20.3859 0,22.0527 13.3721,22.7682 20.5855,22.7682 5.5743,0 14.8246,-0.4303 18.7415,-10.8012 v 22.345 c -2.2496,-7.3508 -7.0217,-10.2297 -14.1194,-10.2297 h -23.1587 v 44.3174 h -4.8243 v -10.1245 h -20.1215 v -6.0786 h 18.6871 v -11.0177 h -18.6871 v -6.0789 h 20.1215 V 515.448 h -32.0173 v 44.3174 h -4.9207 V 515.448 h -16.7471 l -4.9354,26.278 h -0.0842 l -4.9354,-26.278 h -6.2818 v -2.8083 c 3.2071,1.0573 7.23,1.4939 12.0982,1.4939 14.7963,0 21.7865,-4.0292 21.7865,-17.2848 v -25.8687 h -14.3881 v 25.2263 c 0,5.3722 -2.7042,7.0659 -7.3984,7.0659 -4.6939,0 -7.3978,-1.6937 -7.3978,-7.0659 v -25.2263 h -4.7004 z m 112.0243,79.164 v 9.6216 h -8.2409 c 3.9045,-1.408 6.679,-4.5204 8.2409,-9.6216 z m -89.8396,9.6216 h -6.2367 l 6.1526,-31.3999 h 0.0841 z m -15.614,0 h -6.2371 v -31.3999 h 0.0845 z m 98.5342,-88.7856 h 6.9194 v 8.4189 c -1.6126,-4.2693 -4.1275,-6.8559 -6.9194,-8.4189 z m -105.1049,99.5113 h 112.0243 v -6.5545 H 135.3745 Z m 3.5756,-105.0675 1.9321,-0.1919 c 0.1165,0.6463 0.3495,1.1191 0.7035,1.423 0.3538,0.3036 0.8312,0.4544 1.4318,0.4544 0.635,0 1.1146,-0.135 1.4366,-0.4042 0.322,-0.2696 0.4842,-0.5848 0.4842,-0.9457 0,-0.233 -0.0686,-0.4292 -0.2033,-0.5938 -0.1346,-0.1622 -0.3722,-0.3036 -0.7103,-0.4224 -0.2308,-0.0822 -0.756,-0.2239 -1.5781,-0.4295 -1.0573,-0.2647 -1.7997,-0.589 -2.2266,-0.9751 -0.6007,-0.5411 -0.9,-1.2013 -0.9,-1.98 0,-0.5003 0.1417,-0.9706 0.4226,-1.4068 0.2832,-0.4363 0.6897,-0.7673 1.2218,-0.9958 0.532,-0.2285 1.1715,-0.3427 1.9253,-0.3427 1.2262,0 2.1515,0.2718 2.7703,0.8178 0.621,0.5456 0.9453,1.2719 0.9774,2.1832 l -1.9868,0.0686 c -0.0845,-0.5071 -0.2651,-0.8702 -0.5415,-1.0916 -0.2763,-0.2217 -0.6919,-0.3337 -1.2447,-0.3337 -0.5709,0 -1.0184,0.1188 -1.3405,0.3564 -0.2077,0.153 -0.3129,0.3563 -0.3129,0.612 0,0.233 0.0984,0.4317 0.2948,0.5961 0.2489,0.2126 0.8541,0.4317 1.8156,0.6602 0.9615,0.2259 1.6716,0.4634 2.1308,0.7055 0.4612,0.2444 0.822,0.5757 1.0825,0.9981 0.2603,0.4226 0.3904,0.9434 0.3904,1.5622 0,0.5618 -0.1551,1.0893 -0.468,1.5803 -0.313,0.4912 -0.7538,0.8566 -1.3247,1.0942 -0.5709,0.2395 -1.2835,0.3583 -2.1353,0.3583 -1.2402,0 -2.1926,-0.2855 -2.857,-0.8587 -0.6648,-0.5709 -1.0599,-1.4045 -1.19,-2.4984 z m 15.7697,3.179 v -9.8112 h 3.1768 c 1.2036,0 1.9868,0.0479 2.3522,0.146 0.5618,0.1485 1.0323,0.4682 1.4116,0.9615 0.379,0.4935 0.5686,1.1307 0.5686,1.9117 0,0.6029 -0.1097,1.1077 -0.3265,1.5188 -0.2194,0.411 -0.4958,0.733 -0.8314,0.9683 -0.3356,0.233 -0.6783,0.3883 -1.0256,0.4634 -0.4725,0.0939 -1.1554,0.1418 -2.0509,0.1418 h -1.288 v 3.6997 z m 1.9868,-8.1532 v 2.7955 h 1.0803 c 0.7789,0 1.2974,-0.0527 1.5599,-0.1554 0.2627,-0.1029 0.4683,-0.2627 0.6165,-0.4841 0.1485,-0.2194 0.2239,-0.4728 0.2239,-0.7651 0,-0.3586 -0.1051,-0.6534 -0.3129,-0.8861 -0.21,-0.233 -0.4728,-0.3793 -0.7948,-0.4385 -0.235,-0.0434 -0.7078,-0.0663 -1.4205,-0.0663 z m 13.1936,8.1532 v -9.8112 h 1.987 v 9.8112 z m 12.1912,0 v -8.1532 h -2.9049 v -1.658 h 7.783 v 1.658 h -2.8913 v 8.1532 z m 20.0954,0 h -2.1399 l -0.8476,-2.2337 h -3.9347 l -0.8156,2.2337 h -2.101 l 3.8095,-9.8112 h 2.0988 z m -3.6315,-3.8916 -1.3632,-3.6312 -1.3246,3.6312 z m 10.8527,3.8916 v -9.729 h 1.9871 v 8.0711 h 4.9193 v 1.6579 z m 14.4247,-9.8112 h 1.9868 v 5.3166 c 0,0.845 0.0252,1.391 0.0731,1.6399 0.0845,0.4019 0.2832,0.7262 0.5984,0.9683 0.3175,0.2443 0.7492,0.3654 1.2972,0.3654 0.555,0 0.9754,-0.1143 1.2585,-0.3447 0.2832,-0.2308 0.4522,-0.5117 0.5091,-0.8476 0.0573,-0.3356 0.0868,-0.8906 0.0868,-1.667 v -5.4309 h 1.9871 v 5.159 c 0,1.1787 -0.0525,2.0121 -0.1599,2.4985 -0.1074,0.4867 -0.3039,0.8977 -0.5916,1.2333 -0.2854,0.3357 -0.669,0.6007 -1.1486,0.7994 -0.1083,0.0448 -0.2239,0.0845 -0.347,0.1191 -0.248,-0.002 -0.4901,-0.003 -0.7253,-0.003 -0.7294,0 -1.5222,0.008 -2.3573,0.0437 -0.2189,-0.0488 -0.4108,-0.1103 -0.5763,-0.1848 -0.4819,-0.2169 -0.8634,-0.4978 -1.1444,-0.845 -0.2809,-0.347 -0.4634,-0.7078 -0.5524,-1.0894 -0.1304,-0.5618 -0.1942,-1.3929 -0.1942,-2.4916 z m 16.0597,9.8112 v -9.729 h 1.9871 v 8.0711 h 4.9192 v 1.6579 z M 135.3745,455.3555 H 247.3988 V 452.376 H 135.3745 Z"
     style="fill:#ffffff;fill-rule:evenodd"
     id="path5" />
  <path
     d="m 132.9386,634.7574 v -7.1598 h 0.9735 l 3.7564,5.6197 v -5.6197 h 0.91 v 7.1598 h -0.9732 l -3.7567,-5.62 v 5.62 z m 7.2516,0 v -7.1598 h 5.1699 v 0.8399 h -4.22 v 2.2 h 3.9501 v 0.8399 h -3.9501 v 2.4401 h 4.39 v 0.8399 z m 9.9998,-2.81 v -0.8399 h 3.03 v 2.6532 c -0.4649,0.3699 -0.9451,0.65 -1.44,0.8368 -0.495,0.1865 -1.0032,0.2798 -1.5234,0.2798 -0.7032,0 -1.3416,-0.15 -1.9165,-0.4516 -0.5734,-0.2999 -1.0083,-0.7367 -1.2999,-1.305 -0.2934,-0.5698 -0.44,-1.2065 -0.44,-1.9083 0,-0.6965 0.1449,-1.3465 0.4366,-1.9517 0.2916,-0.6032 0.71,-1.0516 1.2566,-1.343 0.5468,-0.2934 1.1766,-0.4403 1.8901,-0.4403 0.5165,0 0.9848,0.0834 1.4031,0.2518 0.4184,0.1683 0.7467,0.4016 0.9834,0.7001 0.2384,0.2999 0.4184,0.6917 0.5417,1.1733 l -0.8549,0.2333 c -0.1083,-0.3634 -0.2418,-0.65 -0.4,-0.8601 -0.1602,-0.2083 -0.3867,-0.375 -0.6834,-0.5 -0.2951,-0.125 -0.6234,-0.1882 -0.9851,-0.1882 -0.4317,0 -0.805,0.0666 -1.1217,0.1981 -0.3149,0.1318 -0.5683,0.305 -0.763,0.5219 -0.1934,0.2149 -0.3436,0.4515 -0.4502,0.7084 -0.1817,0.4447 -0.2732,0.9249 -0.2732,1.4431 0,0.64 0.1099,1.1749 0.3282,1.6067 0.22,0.43 0.54,0.75 0.9584,0.9584 0.4198,0.2083 0.8649,0.3132 1.3365,0.3132 0.4102,0 0.8102,-0.08 1.1999,-0.2384 0.3901,-0.1599 0.6852,-0.3283 0.8867,-0.51 v -1.3416 z m 3.6434,2.81 2.7468,-7.1598 h 1.0414 l 2.9149,7.1598 h -1.0783 l -0.8283,-2.1699 h -3.0149 l -0.7767,2.1699 z m 2.0599,-2.9398 h 2.4401 l -0.7467,-1.9851 c -0.225,-0.6032 -0.3951,-1.1016 -0.5133,-1.495 -0.0984,0.4666 -0.2302,0.9249 -0.3952,1.3785 z m 6.4732,2.9398 v -6.3199 h -2.3601 v -0.8399 h 5.6699 v 0.8399 h -2.3599 v 6.3199 z m 4.4481,0 v -7.1598 h 0.9499 v 7.1598 z m 4.6582,0 -2.7666,-7.1598 h 1.0267 l 1.8598,5.203 c 0.1483,0.4167 0.275,0.8068 0.375,1.1719 0.11,-0.3918 0.2384,-0.7818 0.385,-1.1719 l 1.9301,-5.203 h 0.9666 l -2.7915,7.1598 z m 7.4081,0 v -7.1598 h 2.7034 c 0.4751,0 0.8382,0.0233 1.0899,0.0684 0.3518,0.0583 0.6466,0.1697 0.885,0.3333 0.2384,0.165 0.43,0.3949 0.5751,0.69 0.1449,0.2948 0.2166,0.6199 0.2166,0.9748 0,0.6066 -0.1933,1.1217 -0.5817,1.5418 -0.3866,0.4215 -1.0882,0.6315 -2.1016,0.6315 h -1.8365 v 2.92 z m 0.9502,-3.7599 h 1.8498 c 0.6135,0 1.0466,-0.1134 1.3051,-0.3416 0.2566,-0.2284 0.385,-0.5485 0.385,-0.9635 0,-0.2982 -0.0752,-0.555 -0.2268,-0.7681 -0.1517,-0.2135 -0.3515,-0.3552 -0.5984,-0.4235 -0.1599,-0.0417 -0.455,-0.0633 -0.8833,-0.0633 h -1.8314 z m 5.7398,3.7599 v -7.1598 h 5.1699 v 0.8399 h -4.22 v 2.2 h 3.9501 v 0.8399 h -3.9501 v 2.4401 h 4.39 v 0.8399 z m 9.4782,0 v -7.1598 h 4.83 v 0.8399 h -3.8801 v 2.2301 h 3.3599 v 0.8399 h -3.3599 v 3.2499 z m 5.768,-3.4849 c 0,-1.1866 0.32,-2.1167 0.9584,-2.7882 0.6383,-0.6718 1.4615,-1.0069 2.4715,-1.0069 0.6616,0 1.2566,0.1585 1.7884,0.4734 0.53,0.315 0.9348,0.7552 1.2132,1.3201 0.2784,0.5633 0.4184,1.2033 0.4184,1.9182 0,0.7251 -0.1466,1.3751 -0.4399,1.9466 -0.2934,0.5734 -0.7084,1.0066 -1.245,1.3 -0.5383,0.295 -1.1183,0.4416 -1.7399,0.4416 -0.6752,0 -1.2768,-0.1633 -1.8085,-0.4881 -0.5298,-0.3252 -0.9332,-0.7685 -1.2065,-1.3318 -0.2735,-0.5615 -0.4101,-1.1565 -0.4101,-1.7849 z m 0.9799,0.0167 c 0,0.8614 0.2319,1.5398 0.6951,2.035 0.4634,0.4949 1.0451,0.7432 1.745,0.7432 0.7132,0 1.2982,-0.25 1.76,-0.75 0.4601,-0.5 0.69,-1.2098 0.69,-2.13 0,-0.5816 -0.0984,-1.0899 -0.2951,-1.5233 -0.1968,-0.4331 -0.485,-0.7699 -0.8632,-1.0083 -0.3801,-0.2384 -0.805,-0.3583 -1.2767,-0.3583 -0.6701,0 -1.2467,0.2299 -1.73,0.69 -0.4833,0.46 -0.7251,1.2265 -0.7251,2.3017 z m 7.0784,3.4682 v -7.1598 h 0.9734 l 3.7565,5.6197 v -5.6197 h 0.9099 v 7.1598 h -0.9731 l -3.7568,-5.62 v 5.62 z m 9.0516,0 v -6.3199 h -2.3601 v -0.8399 h 5.6698 v 0.8399 h -2.3598 v 6.3199 z m 2.7615,0 2.7468,-7.1598 h 1.0414 l 2.9149,7.1598 h -1.0783 l -0.8283,-2.1699 h -3.0149 l -0.7767,2.1699 z m 2.0599,-2.9398 h 2.4401 l -0.7466,-1.9851 c -0.2251,-0.6032 -0.3952,-1.1016 -0.5134,-1.495 -0.0984,0.4666 -0.2302,0.9249 -0.3951,1.3785 z m -89.9098,16.101 v -7.1798 h 0.7999 v 0.6817 c 0.1885,-0.2633 0.4017,-0.4618 0.6401,-0.5933 0.2367,-0.1318 0.525,-0.1984 0.8634,-0.1984 0.4434,0 0.8334,0.1134 1.1716,0.3416 0.3384,0.2267 0.5933,0.5485 0.7667,0.9618 0.1715,0.4149 0.2583,0.8682 0.2583,1.3631 0,0.5284 -0.095,1.0052 -0.2849,1.4301 -0.1902,0.4232 -0.4669,0.7484 -0.83,0.9751 -0.3617,0.2248 -0.7435,0.3382 -1.1435,0.3382 -0.2934,0 -0.5567,-0.0615 -0.7883,-0.1851 -0.2333,-0.1233 -0.4232,-0.2781 -0.5732,-0.4666 v 2.5316 z m 0.7999,-4.5532 c 0,0.665 0.1352,1.1568 0.4034,1.4751 0.2701,0.3183 0.5967,0.4782 0.9799,0.4782 0.3901,0 0.7234,-0.165 1.0001,-0.4949 0.2784,-0.33 0.4167,-0.8399 0.4167,-1.5316 0,-0.6602 -0.1349,-1.1534 -0.4068,-1.4816 -0.2715,-0.3286 -0.595,-0.4919 -0.9714,-0.4919 -0.3733,0 -0.7033,0.1752 -0.9902,0.5233 -0.2882,0.3501 -0.4317,0.8569 -0.4317,1.5234 z m 8.3016,0.8832 0.9102,0.1202 c -0.1418,0.5284 -0.4068,0.94 -0.7934,1.2317 -0.3867,0.2917 -0.8799,0.4382 -1.4817,0.4382 -0.7566,0 -1.3567,-0.2333 -1.8,-0.6999 -0.4434,-0.4651 -0.665,-1.1199 -0.665,-1.9618 0,-0.87 0.2233,-1.5466 0.6718,-2.0265 0.4481,-0.4816 1.0298,-0.7217 1.745,-0.7217 0.6916,0 1.2566,0.235 1.6948,0.7067 0.4383,0.4716 0.6582,1.135 0.6582,1.9899 0,0.0516 -0.002,0.1301 -0.005,0.2333 h -3.865 c 0.0334,0.5683 0.1933,1.0051 0.4833,1.3067 0.2883,0.3017 0.65,0.4533 1.0817,0.4533 0.3217,0 0.5967,-0.085 0.8234,-0.2548 0.2282,-0.1701 0.4082,-0.4419 0.5415,-0.8153 z m -2.8798,-1.4099 h 2.89 c -0.0386,-0.4366 -0.1503,-0.7631 -0.3317,-0.9817 -0.2783,-0.3381 -0.6417,-0.5082 -1.0868,-0.5082 -0.4034,0 -0.7415,0.1349 -1.0165,0.4051 -0.2735,0.2698 -0.4252,0.6315 -0.455,1.0848 z m 4.9014,3.09 v -5.1899 h 0.79 v 0.7367 c 0.3802,-0.5649 0.9301,-0.8467 1.6484,-0.8467 0.3132,0 0.6001,0.0567 0.8617,0.1684 0.2617,0.1117 0.4584,0.2599 0.5882,0.4416 0.1301,0.1817 0.2217,0.3983 0.2733,0.6483 0.0317,0.1633 0.0484,0.4484 0.0484,0.8549 v 3.1867 h -0.8798 v -3.1532 c 0,-0.3583 -0.0335,-0.6268 -0.1018,-0.8034 -0.0683,-0.1766 -0.1899,-0.3183 -0.3634,-0.4249 -0.1732,-0.1052 -0.3784,-0.1584 -0.6117,-0.1584 -0.3733,0 -0.6948,0.1184 -0.9666,0.3566 -0.2716,0.2366 -0.4065,0.6885 -0.4065,1.3518 v 2.8315 z m 7.4716,-0.7849 0.1202,0.7767 c -0.2469,0.0516 -0.4686,0.0782 -0.6619,0.0782 -0.3183,0 -0.565,-0.0498 -0.7416,-0.1516 -0.1749,-0.1018 -0.2982,-0.2333 -0.3699,-0.3983 -0.0717,-0.165 -0.1068,-0.5116 -0.1068,-1.04 v -2.99 h -0.65 v -0.68 h 0.65 v -1.2833 l 0.8801,-0.5284 v 1.8117 h 0.8799 v 0.68 h -0.8799 v 3.0399 c 0,0.2517 0.015,0.4133 0.0465,0.485 0.0301,0.0717 0.0802,0.1284 0.1502,0.1718 0.0701,0.0416 0.1698,0.0632 0.2999,0.0632 0.0967,0 0.2251,-0.0116 0.3833,-0.0349 z m 0.8583,0.7849 v -5.1899 h 0.79 v 0.7951 c 0.2016,-0.3685 0.3884,-0.6117 0.5599,-0.7285 0.1718,-0.1182 0.36,-0.1766 0.5652,-0.1766 0.2965,0 0.5981,0.0932 0.9048,0.2783 l -0.3132,0.8116 c -0.2134,-0.1199 -0.4266,-0.18 -0.6401,-0.18 -0.1916,0 -0.3634,0.0584 -0.515,0.1735 -0.1517,0.1151 -0.26,0.2749 -0.3249,0.4799 -0.0983,0.3118 -0.1468,0.6534 -0.1468,1.025 v 2.7116 z m 6.7298,0 v -0.7716 c -0.4034,0.5882 -0.9499,0.8816 -1.6416,0.8816 -0.305,0 -0.5899,-0.0584 -0.8549,-0.1749 -0.2651,-0.1185 -0.4618,-0.265 -0.5902,-0.4416 -0.1281,-0.1783 -0.2183,-0.3952 -0.2698,-0.6517 -0.0352,-0.1735 -0.0533,-0.4468 -0.0533,-0.8201 v -3.2116 h 0.8798 v 2.8718 c 0,0.458 0.0185,0.7681 0.0533,0.9266 0.055,0.2316 0.1718,0.4116 0.3518,0.5431 0.1783,0.1318 0.3983,0.1984 0.6616,0.1984 0.2633,0 0.51,-0.0666 0.7399,-0.2015 0.2301,-0.1352 0.3934,-0.32 0.4901,-0.5519 0.0949,-0.2316 0.1434,-0.5698 0.1434,-1.0114 v -2.7751 h 0.8799 v 5.1899 z m 6.8598,-0.7849 0.1202,0.7767 c -0.2469,0.0516 -0.4686,0.0782 -0.6619,0.0782 -0.3183,0 -0.5649,-0.0498 -0.7415,-0.1516 -0.1749,-0.1018 -0.2983,-0.2333 -0.37,-0.3983 -0.0717,-0.165 -0.1068,-0.5116 -0.1068,-1.04 v -2.99 h -0.65 v -0.68 h 0.65 v -1.2833 l 0.8801,-0.5284 v 1.8117 h 0.8799 v 0.68 h -0.8799 v 3.0399 c 0,0.2517 0.015,0.4133 0.0465,0.485 0.0301,0.0717 0.0802,0.1284 0.1502,0.1718 0.0701,0.0416 0.1698,0.0632 0.3,0.0632 0.0966,0 0.225,-0.0116 0.3832,-0.0349 z m 0.8682,-5.375 v -0.9998 h 0.8802 v 0.9998 z m 0,6.1599 v -5.1899 h 0.8802 v 5.1899 z m 2.2216,1.9899 v -7.1798 h 0.7999 v 0.6817 c 0.1885,-0.2633 0.4017,-0.4618 0.6401,-0.5933 0.2367,-0.1318 0.5249,-0.1984 0.8634,-0.1984 0.4433,0 0.8334,0.1134 1.1716,0.3416 0.3384,0.2267 0.5932,0.5485 0.7667,0.9618 0.1715,0.4149 0.2583,0.8682 0.2583,1.3631 0,0.5284 -0.095,1.0052 -0.2849,1.4301 -0.1902,0.4232 -0.4669,0.7484 -0.83,0.9751 -0.3617,0.2248 -0.7435,0.3382 -1.1435,0.3382 -0.2934,0 -0.5567,-0.0615 -0.7883,-0.1851 -0.2333,-0.1233 -0.4232,-0.2781 -0.5732,-0.4666 v 2.5316 z m 0.7999,-4.5532 c 0,0.665 0.1352,1.1568 0.4034,1.4751 0.2701,0.3183 0.5967,0.4782 0.9799,0.4782 0.3901,0 0.7234,-0.165 1.0001,-0.4949 0.2783,-0.33 0.4167,-0.8399 0.4167,-1.5316 0,-0.6602 -0.135,-1.1534 -0.4068,-1.4816 -0.2716,-0.3286 -0.595,-0.4919 -0.9714,-0.4919 -0.3734,0 -0.7033,0.1752 -0.9902,0.5233 -0.2883,0.3501 -0.4317,0.8569 -0.4317,1.5234 z m 8.1516,1.9133 c -0.3266,0.2784 -0.6415,0.4734 -0.9434,0.5882 -0.3016,0.1151 -0.6247,0.1718 -0.9714,0.1718 -0.5701,0 -1.0083,-0.1383 -1.315,-0.4167 -0.3067,-0.2766 -0.4601,-0.6315 -0.4601,-1.0633 0,-0.2534 0.0584,-0.485 0.1732,-0.695 0.1168,-0.2101 0.2685,-0.3765 0.4553,-0.5032 0.1882,-0.1267 0.3982,-0.2233 0.6332,-0.2882 0.1732,-0.0451 0.4349,-0.0885 0.7832,-0.1319 0.7101,-0.0833 1.2351,-0.1851 1.5702,-0.3016 0.003,-0.1199 0.005,-0.1967 0.005,-0.2284 0,-0.3566 -0.0834,-0.6084 -0.25,-0.7549 -0.2248,-0.1984 -0.5599,-0.2968 -1.0032,-0.2968 -0.415,0 -0.7217,0.0734 -0.9184,0.2186 -0.1982,0.1448 -0.3433,0.4016 -0.4383,0.7716 l -0.86,-0.12 c 0.0782,-0.3685 0.2066,-0.6667 0.3866,-0.8934 0.18,-0.2268 0.44,-0.4 0.7801,-0.5233 0.3382,-0.1216 0.7333,-0.1834 1.1798,-0.1834 0.4433,0 0.805,0.0516 1.0834,0.1567 0.2767,0.1049 0.4816,0.235 0.6117,0.3932 0.1301,0.1585 0.2217,0.3586 0.275,0.6001 0.0283,0.15 0.0434,0.4201 0.0434,0.8084 v 1.1665 c 0,0.815 0.0184,1.33 0.0549,1.5483 0.0349,0.2185 0.1083,0.4266 0.2149,0.6267 h -0.9198 c -0.0885,-0.1851 -0.1452,-0.4016 -0.1701,-0.65 z m -0.07,-1.9499 c -0.3201,0.1301 -0.8,0.2401 -1.44,0.3299 -0.3631,0.0516 -0.62,0.11 -0.7699,0.1749 -0.15,0.0652 -0.2651,0.1602 -0.3467,0.2835 -0.0816,0.125 -0.1233,0.2633 -0.1233,0.4167 0,0.2316 0.0884,0.4266 0.2667,0.5817 0.1783,0.155 0.4383,0.2333 0.7798,0.2333 0.3385,0 0.6401,-0.0735 0.9052,-0.2217 0.2633,-0.1466 0.4583,-0.3484 0.5816,-0.6032 0.095,-0.1985 0.1418,-0.4901 0.1418,-0.8751 z m 2.2317,2.5999 v -5.1899 h 0.79 v 0.7951 c 0.2015,-0.3685 0.3884,-0.6117 0.5598,-0.7285 0.1718,-0.1182 0.36,-0.1766 0.5653,-0.1766 0.2965,0 0.5981,0.0932 0.9048,0.2783 l -0.3132,0.8116 c -0.2135,-0.1199 -0.4266,-0.18 -0.6401,-0.18 -0.1916,0 -0.3634,0.0584 -0.5151,0.1735 -0.1516,0.1151 -0.2599,0.2749 -0.3248,0.4799 -0.0984,0.3118 -0.1468,0.6534 -0.1468,1.025 v 2.7116 z"
     style="fill:#1b1918;fill-rule:evenodd"
     id="path6" />
  <path
     d="m 315.9133,409.4016 h 194.8453 v 201.885 H 315.9133 Z"
     style="fill:#006bb5;fill-rule:evenodd"
     id="path7" />
  <path
     d="m 412.3397,478.4304 h -1.2455 v 10.4641 h 1.7368 c 1.2997,0 2.4372,-0.1214 3.4138,-0.362 0.9603,-0.2367 1.7685,-0.5891 2.4233,-1.0551 0.6338,-0.451 1.1081,-1.0017 1.423,-1.6489 0.3186,-0.6545 0.4776,-1.4168 0.4776,-2.283 0,-0.9176 -0.153,-1.6968 -0.46,-2.3395 -0.3028,-0.6301 -0.7558,-1.1406 -1.3604,-1.5321 -0.6287,-0.4073 -1.47,-0.7152 -2.5214,-0.9232 -1.0797,-0.2138 -2.376,-0.3203 -3.8872,-0.3203 z m 36.1766,48.4154 h 6.8335 c 5.442,0 7.6354,4.0524 7.6354,11.2076 0,7.1553 -2.1934,11.2077 -7.6354,11.2077 h -6.8335 z m -1.2897,-35.4801 c 0,-8.6426 3.0795,-12.0399 7.9305,-12.0399 4.8509,0 7.9305,3.3973 7.9305,12.0399 0,8.6423 -3.0796,12.0396 -7.9305,12.0396 -4.851,0 -7.9305,-3.3973 -7.9305,-12.0396 z m -85.3523,-20.3859 h 37.9332 v 40.8172 0.5 h 11.2867 v -16.2607 h 0.754 l 11.8542,16.2607 h 13.364 l -13.773,-18.0967 c 1.1341,-0.515 2.1549,-1.1114 3.0606,-1.7889 1.0663,-0.798 1.9697,-1.7059 2.7082,-2.7241 0.7427,-1.0233 1.3002,-2.1322 1.6718,-3.3259 0.3708,-1.192 0.5565,-2.4653 0.5565,-3.82 0,-0.9419 -0.1182,-1.8646 -0.356,-2.7666 -0.2362,-0.8968 -0.5919,-1.7716 -1.0676,-2.6229 -0.4751,-0.8504 -1.0474,-1.6313 -1.7146,-2.3414 -0.6665,-0.7095 -1.4301,-1.351 -2.2885,-1.9247 -0.805,-0.5443 -1.6684,-1.0089 -2.5914,-1.3949 -0.4515,-0.1888 -0.919,-0.3592 -1.402,-0.5111 h 21.4645 c -4.7863,2.6796 -8.7633,8.3591 -8.7633,20.3859 0,22.0527 13.3721,22.7682 20.5855,22.7682 5.5743,0 14.8246,-0.4303 18.7415,-10.8012 v 22.345 c -2.2496,-7.3508 -7.0217,-10.2297 -14.1194,-10.2297 h -23.1587 v 44.3174 h -4.8243 v -10.1245 h -20.1215 v -6.0786 h 18.6872 v -11.0177 h -18.6872 v -6.0789 h 20.1215 V 515.448 h -32.0173 v 44.3174 h -4.9207 V 515.448 h -16.7471 l -4.9354,26.278 h -0.0842 l -4.9354,-26.278 h -6.2818 v -2.8083 c 3.2071,1.0573 7.23,1.4939 12.0982,1.4939 14.7963,0 21.7866,-4.0292 21.7866,-17.2848 V 470.9801 H 381.371 v 25.2263 c 0,5.3722 -2.7043,7.0659 -7.3985,7.0659 -4.6939,0 -7.3978,-1.6937 -7.3978,-7.0659 v -25.2263 h -4.7004 z m 112.0243,79.164 v 9.6216 h -8.2409 c 3.9045,-1.408 6.679,-4.5204 8.2409,-9.6216 z m -89.8395,9.6216 h -6.2368 l 6.1526,-31.3999 h 0.0842 z m -15.6141,0 h -6.2371 v -31.3999 h 0.0845 z m 98.5342,-88.7856 h 6.9194 v 8.4189 c -1.6126,-4.2693 -4.1275,-6.8559 -6.9194,-8.4189 z m -105.1049,99.5113 h 112.0243 v -6.5545 H 361.8743 Z m 3.5756,-105.0675 1.9321,-0.1919 c 0.1165,0.6463 0.3495,1.1191 0.7035,1.423 0.3538,0.3036 0.8312,0.4544 1.4318,0.4544 0.635,0 1.1146,-0.135 1.4366,-0.4042 0.322,-0.2696 0.4842,-0.5848 0.4842,-0.9457 0,-0.233 -0.0686,-0.4292 -0.2033,-0.5938 -0.1346,-0.1622 -0.3722,-0.3036 -0.7103,-0.4224 -0.2308,-0.0822 -0.756,-0.2239 -1.5781,-0.4295 -1.0573,-0.2647 -1.7997,-0.589 -2.2266,-0.9751 -0.6007,-0.5411 -0.9,-1.2013 -0.9,-1.98 0,-0.5003 0.1417,-0.9706 0.4227,-1.4068 0.2831,-0.4363 0.6896,-0.7673 1.2217,-0.9958 0.5321,-0.2285 1.1715,-0.3427 1.9253,-0.3427 1.2262,0 2.1515,0.2718 2.7703,0.8178 0.6211,0.5456 0.9453,1.2719 0.9774,2.1832 l -1.9868,0.0686 c -0.0845,-0.5071 -0.2651,-0.8702 -0.5415,-1.0916 -0.2763,-0.2217 -0.6919,-0.3337 -1.2446,-0.3337 -0.5709,0 -1.0185,0.1188 -1.3406,0.3564 -0.2077,0.153 -0.3129,0.3563 -0.3129,0.612 0,0.233 0.0984,0.4317 0.2948,0.5961 0.2489,0.2126 0.8541,0.4317 1.8156,0.6602 0.9615,0.2259 1.6716,0.4634 2.1308,0.7055 0.4612,0.2444 0.822,0.5757 1.0826,0.9981 0.2602,0.4226 0.3903,0.9434 0.3903,1.5622 0,0.5618 -0.1551,1.0893 -0.468,1.5803 -0.313,0.4912 -0.7538,0.8566 -1.3246,1.0942 -0.5709,0.2395 -1.2836,0.3583 -2.1354,0.3583 -1.2401,0 -2.1926,-0.2855 -2.857,-0.8587 -0.6648,-0.5709 -1.0599,-1.4045 -1.19,-2.4984 z m 15.7697,3.179 v -9.8112 h 3.1768 c 1.2036,0 1.9868,0.0479 2.3522,0.146 0.5618,0.1485 1.0323,0.4682 1.4116,0.9615 0.379,0.4935 0.5687,1.1307 0.5687,1.9117 0,0.6029 -0.1098,1.1077 -0.3266,1.5188 -0.2194,0.411 -0.4958,0.733 -0.8314,0.9683 -0.3356,0.233 -0.6783,0.3883 -1.0256,0.4634 -0.4725,0.0939 -1.1554,0.1418 -2.0508,0.1418 h -1.2881 v 3.6997 z m 1.9868,-8.1532 v 2.7955 h 1.0803 c 0.7789,0 1.2974,-0.0527 1.5599,-0.1554 0.2628,-0.1029 0.4683,-0.2627 0.6165,-0.4841 0.1486,-0.2194 0.224,-0.4728 0.224,-0.7651 0,-0.3586 -0.1052,-0.6534 -0.313,-0.8861 -0.21,-0.233 -0.4728,-0.3793 -0.7948,-0.4385 -0.235,-0.0434 -0.7078,-0.0663 -1.4205,-0.0663 z m 13.1936,8.1532 v -9.8112 h 1.9871 v 9.8112 z m 12.1912,0 v -8.1532 h -2.9049 v -1.658 h 7.7831 v 1.658 h -2.8914 v 8.1532 z m 20.0954,0 h -2.1399 l -0.8476,-2.2337 h -3.9347 l -0.8155,2.2337 h -2.1011 l 3.8095,-9.8112 h 2.0988 z m -3.6315,-3.8916 -1.3632,-3.6312 -1.3246,3.6312 z m 10.8527,3.8916 v -9.729 h 1.9871 v 8.0711 h 4.9193 v 1.6579 z m 14.4247,-9.8112 h 1.9868 v 5.3166 c 0,0.845 0.0252,1.391 0.0731,1.6399 0.0845,0.4019 0.2832,0.7262 0.5984,0.9683 0.3175,0.2443 0.7492,0.3654 1.2972,0.3654 0.555,0 0.9754,-0.1143 1.2586,-0.3447 0.2831,-0.2308 0.4521,-0.5117 0.5091,-0.8476 0.0572,-0.3356 0.0867,-0.8906 0.0867,-1.667 v -5.4309 h 1.9871 v 5.159 c 0,1.1787 -0.0525,2.0121 -0.1599,2.4985 -0.1074,0.4867 -0.3039,0.8977 -0.5916,1.2333 -0.2854,0.3357 -0.669,0.6007 -1.1486,0.7994 -0.1083,0.0448 -0.2239,0.0845 -0.3469,0.1191 -0.2481,-0.002 -0.4902,-0.003 -0.7254,-0.003 -0.7294,0 -1.5222,0.008 -2.3573,0.0437 -0.2189,-0.0488 -0.4108,-0.1103 -0.5763,-0.1848 -0.4819,-0.2169 -0.8634,-0.4978 -1.1444,-0.845 -0.2809,-0.347 -0.4634,-0.7078 -0.5524,-1.0894 -0.1304,-0.5618 -0.1942,-1.3929 -0.1942,-2.4916 z m 16.0597,9.8112 v -9.729 h 1.9871 v 8.0711 h 4.9192 v 1.6579 z M 361.8743,455.3555 H 473.8986 V 452.376 H 361.8743 Z"
     style="fill:#ffffff;fill-rule:evenodd"
     id="path8" />
  <path
     d="m 359.4385,634.7574 v -7.1598 h 0.9734 l 3.7564,5.6197 v -5.6197 h 0.91 v 7.1598 h -0.9732 l -3.7567,-5.62 v 5.62 z m 7.2515,0 v -7.1598 h 5.1699 v 0.8399 h -4.22 v 2.2 h 3.9501 v 0.8399 h -3.9501 v 2.4401 h 4.3901 v 0.8399 z m 9.9998,-2.81 v -0.8399 h 3.03 v 2.6532 c -0.4649,0.3699 -0.9451,0.65 -1.44,0.8368 -0.4949,0.1865 -1.0032,0.2798 -1.5234,0.2798 -0.7032,0 -1.3416,-0.15 -1.9165,-0.4516 -0.5734,-0.2999 -1.0082,-0.7367 -1.2999,-1.305 -0.2934,-0.5698 -0.44,-1.2065 -0.44,-1.9083 0,-0.6965 0.1449,-1.3465 0.4366,-1.9517 0.2917,-0.6032 0.71,-1.0516 1.2566,-1.343 0.5468,-0.2934 1.1766,-0.4403 1.8901,-0.4403 0.5165,0 0.9848,0.0834 1.4032,0.2518 0.4184,0.1683 0.7466,0.4016 0.9833,0.7001 0.2384,0.2999 0.4184,0.6917 0.5417,1.1733 l -0.8549,0.2333 c -0.1083,-0.3634 -0.2418,-0.65 -0.4,-0.8601 -0.1602,-0.2083 -0.3866,-0.375 -0.6834,-0.5 -0.2951,-0.125 -0.6234,-0.1882 -0.9851,-0.1882 -0.4317,0 -0.805,0.0666 -1.1216,0.1981 -0.315,0.1318 -0.5684,0.305 -0.7631,0.5219 -0.1934,0.2149 -0.3436,0.4515 -0.4502,0.7084 -0.1817,0.4447 -0.2732,0.9249 -0.2732,1.4431 0,0.64 0.11,1.1749 0.3282,1.6067 0.22,0.43 0.54,0.75 0.9584,0.9584 0.4198,0.2083 0.8649,0.3132 1.3365,0.3132 0.4102,0 0.8102,-0.08 1.2,-0.2384 0.39,-0.1599 0.6851,-0.3283 0.8866,-0.51 v -1.3416 z m 3.6434,2.81 2.7468,-7.1598 h 1.0414 l 2.9149,7.1598 h -1.0783 l -0.8283,-2.1699 h -3.0149 l -0.7767,2.1699 z m 2.0599,-2.9398 h 2.4401 l -0.7466,-1.9851 c -0.2251,-0.6032 -0.3952,-1.1016 -0.5134,-1.495 -0.0984,0.4666 -0.2302,0.9249 -0.3952,1.3785 z m 6.4732,2.9398 v -6.3199 h -2.3601 v -0.8399 h 5.6699 v 0.8399 h -2.3599 v 6.3199 z m 4.4482,0 v -7.1598 h 0.9498 v 7.1598 z m 4.6581,0 -2.7666,-7.1598 h 1.0267 l 1.8598,5.203 c 0.1483,0.4167 0.275,0.8068 0.3751,1.1719 0.1099,-0.3918 0.2384,-0.7818 0.3849,-1.1719 l 1.9301,-5.203 h 0.9666 l -2.7915,7.1598 z m 7.4081,0 v -7.1598 h 2.7034 c 0.4751,0 0.8382,0.0233 1.0899,0.0684 0.3518,0.0583 0.6466,0.1697 0.885,0.3333 0.2384,0.165 0.43,0.3949 0.5751,0.69 0.1449,0.2948 0.2166,0.6199 0.2166,0.9748 0,0.6066 -0.1933,1.1217 -0.5817,1.5418 -0.3866,0.4215 -1.0882,0.6315 -2.1016,0.6315 h -1.8365 v 2.92 z m 0.9502,-3.7599 h 1.8499 c 0.6134,0 1.0465,-0.1134 1.305,-0.3416 0.2566,-0.2284 0.385,-0.5485 0.385,-0.9635 0,-0.2982 -0.0751,-0.555 -0.2268,-0.7681 -0.1517,-0.2135 -0.3515,-0.3552 -0.5984,-0.4235 -0.1599,-0.0417 -0.455,-0.0633 -0.8833,-0.0633 h -1.8314 z m 5.7398,3.7599 v -7.1598 h 5.1699 v 0.8399 h -4.22 v 2.2 h 3.9501 v 0.8399 h -3.9501 v 2.4401 h 4.39 v 0.8399 z m 9.4782,0 v -7.1598 h 4.83 v 0.8399 h -3.8801 v 2.2301 h 3.3599 v 0.8399 h -3.3599 v 3.2499 z m 5.768,-3.4849 c 0,-1.1866 0.32,-2.1167 0.9584,-2.7882 0.6383,-0.6718 1.4615,-1.0069 2.4715,-1.0069 0.6616,0 1.2566,0.1585 1.7884,0.4734 0.5301,0.315 0.9348,0.7552 1.2132,1.3201 0.2784,0.5633 0.4184,1.2033 0.4184,1.9182 0,0.7251 -0.1465,1.3751 -0.4399,1.9466 -0.2934,0.5734 -0.7084,1.0066 -1.245,1.3 -0.5383,0.295 -1.1183,0.4416 -1.7399,0.4416 -0.6752,0 -1.2767,-0.1633 -1.8085,-0.4881 -0.5298,-0.3252 -0.9332,-0.7685 -1.2064,-1.3318 -0.2736,-0.5615 -0.4102,-1.1565 -0.4102,-1.7849 z m 0.9799,0.0167 c 0,0.8614 0.2319,1.5398 0.6951,2.035 0.4634,0.4949 1.0451,0.7432 1.745,0.7432 0.7132,0 1.2982,-0.25 1.76,-0.75 0.4601,-0.5 0.69,-1.2098 0.69,-2.13 0,-0.5816 -0.0984,-1.0899 -0.2951,-1.5233 -0.1967,-0.4331 -0.485,-0.7699 -0.8632,-1.0083 -0.3801,-0.2384 -0.805,-0.3583 -1.2767,-0.3583 -0.6701,0 -1.2467,0.2299 -1.73,0.69 -0.4833,0.46 -0.7251,1.2265 -0.7251,2.3017 z m 7.0784,3.4682 v -7.1598 h 0.9734 l 3.7565,5.6197 v -5.6197 h 0.9099 v 7.1598 h -0.9731 l -3.7568,-5.62 v 5.62 z m 9.0516,0 v -6.3199 h -2.3601 v -0.8399 h 5.6698 v 0.8399 h -2.3598 v 6.3199 z m 2.7615,0 2.7468,-7.1598 h 1.0414 l 2.9149,7.1598 h -1.0783 l -0.8283,-2.1699 h -3.0149 l -0.7767,2.1699 z m 2.06,-2.9398 h 2.44 l -0.7466,-1.9851 c -0.2251,-0.6032 -0.3952,-1.1016 -0.5134,-1.495 -0.0983,0.4666 -0.2302,0.9249 -0.3951,1.3785 z m -89.9099,16.101 v -7.1798 h 0.7999 v 0.6817 c 0.1885,-0.2633 0.4017,-0.4618 0.6401,-0.5933 0.2367,-0.1318 0.525,-0.1984 0.8634,-0.1984 0.4434,0 0.8334,0.1134 1.1716,0.3416 0.3384,0.2267 0.5933,0.5485 0.7668,0.9618 0.1715,0.4149 0.2582,0.8682 0.2582,1.3631 0,0.5284 -0.095,1.0052 -0.2849,1.4301 -0.1902,0.4232 -0.4669,0.7484 -0.83,0.9751 -0.3617,0.2248 -0.7435,0.3382 -1.1435,0.3382 -0.2934,0 -0.5567,-0.0615 -0.7883,-0.1851 -0.2333,-0.1233 -0.4232,-0.2781 -0.5731,-0.4666 v 2.5316 z m 0.7999,-4.5532 c 0,0.665 0.1352,1.1568 0.4034,1.4751 0.2701,0.3183 0.5967,0.4782 0.9799,0.4782 0.3901,0 0.7234,-0.165 1.0001,-0.4949 0.2784,-0.33 0.4167,-0.8399 0.4167,-1.5316 0,-0.6602 -0.1349,-1.1534 -0.4068,-1.4816 -0.2715,-0.3286 -0.595,-0.4919 -0.9714,-0.4919 -0.3733,0 -0.7033,0.1752 -0.9902,0.5233 -0.2882,0.3501 -0.4317,0.8569 -0.4317,1.5234 z m 8.3016,0.8832 0.9102,0.1202 c -0.1418,0.5284 -0.4068,0.94 -0.7934,1.2317 -0.3867,0.2917 -0.8799,0.4382 -1.4817,0.4382 -0.7566,0 -1.3567,-0.2333 -1.8,-0.6999 -0.4433,-0.4651 -0.665,-1.1199 -0.665,-1.9618 0,-0.87 0.2234,-1.5466 0.6718,-2.0265 0.4482,-0.4816 1.0298,-0.7217 1.745,-0.7217 0.6917,0 1.2566,0.235 1.6948,0.7067 0.4383,0.4716 0.6582,1.135 0.6582,1.9899 0,0.0516 -0.002,0.1301 -0.005,0.2333 h -3.865 c 0.0334,0.5683 0.1933,1.0051 0.4833,1.3067 0.2883,0.3017 0.65,0.4533 1.0817,0.4533 0.3217,0 0.5967,-0.085 0.8235,-0.2548 0.2281,-0.1701 0.4081,-0.4419 0.5414,-0.8153 z m -2.8797,-1.4099 h 2.8899 c -0.0386,-0.4366 -0.1503,-0.7631 -0.3317,-0.9817 -0.2783,-0.3381 -0.6417,-0.5082 -1.0868,-0.5082 -0.4033,0 -0.7415,0.1349 -1.0165,0.4051 -0.2735,0.2698 -0.4252,0.6315 -0.4549,1.0848 z m 4.9013,3.09 v -5.1899 h 0.7901 v 0.7367 c 0.3801,-0.5649 0.93,-0.8467 1.6483,-0.8467 0.3132,0 0.6001,0.0567 0.8617,0.1684 0.2617,0.1117 0.4584,0.2599 0.5882,0.4416 0.1301,0.1817 0.2217,0.3983 0.2733,0.6483 0.0317,0.1633 0.0485,0.4484 0.0485,0.8549 v 3.1867 h -0.8799 v -3.1532 c 0,-0.3583 -0.0335,-0.6268 -0.1018,-0.8034 -0.0683,-0.1766 -0.1899,-0.3183 -0.3634,-0.4249 -0.1732,-0.1052 -0.3784,-0.1584 -0.6117,-0.1584 -0.3733,0 -0.6948,0.1184 -0.9666,0.3566 -0.2716,0.2366 -0.4065,0.6885 -0.4065,1.3518 v 2.8315 z m 7.4716,-0.7849 0.1202,0.7767 c -0.2469,0.0516 -0.4686,0.0782 -0.6619,0.0782 -0.3183,0 -0.5649,-0.0498 -0.7415,-0.1516 -0.1749,-0.1018 -0.2982,-0.2333 -0.37,-0.3983 -0.0717,-0.165 -0.1068,-0.5116 -0.1068,-1.04 v -2.99 h -0.65 v -0.68 h 0.65 v -1.2833 l 0.8801,-0.5284 v 1.8117 h 0.8799 v 0.68 h -0.8799 v 3.0399 c 0,0.2517 0.0151,0.4133 0.0465,0.485 0.0301,0.0717 0.0802,0.1284 0.1503,0.1718 0.07,0.0416 0.1697,0.0632 0.2999,0.0632 0.0966,0 0.225,-0.0116 0.3832,-0.0349 z m 0.8583,0.7849 v -5.1899 h 0.79 v 0.7951 c 0.2016,-0.3685 0.3884,-0.6117 0.5599,-0.7285 0.1718,-0.1182 0.36,-0.1766 0.5652,-0.1766 0.2965,0 0.5981,0.0932 0.9048,0.2783 l -0.3132,0.8116 c -0.2134,-0.1199 -0.4266,-0.18 -0.6401,-0.18 -0.1916,0 -0.3634,0.0584 -0.515,0.1735 -0.1517,0.1151 -0.2599,0.2749 -0.3249,0.4799 -0.0983,0.3118 -0.1468,0.6534 -0.1468,1.025 v 2.7116 z m 6.7298,0 v -0.7716 c -0.4034,0.5882 -0.9499,0.8816 -1.6416,0.8816 -0.305,0 -0.5899,-0.0584 -0.8549,-0.1749 -0.265,-0.1185 -0.4618,-0.265 -0.5902,-0.4416 -0.1281,-0.1783 -0.2182,-0.3952 -0.2698,-0.6517 -0.0352,-0.1735 -0.0533,-0.4468 -0.0533,-0.8201 v -3.2116 h 0.8798 v 2.8718 c 0,0.458 0.0185,0.7681 0.0533,0.9266 0.055,0.2316 0.1718,0.4116 0.3518,0.5431 0.1783,0.1318 0.3983,0.1984 0.6616,0.1984 0.2634,0 0.51,-0.0666 0.7399,-0.2015 0.2301,-0.1352 0.3934,-0.32 0.4901,-0.5519 0.0949,-0.2316 0.1434,-0.5698 0.1434,-1.0114 v -2.7751 h 0.8799 v 5.1899 z m 4.9498,-6.1599 v -0.9998 h 0.8802 v 0.9998 z m 0,6.1599 v -5.1899 h 0.8802 v 5.1899 z m 2.2215,0 v -5.1899 h 0.7901 v 0.7367 c 0.3801,-0.5649 0.93,-0.8467 1.6483,-0.8467 0.3132,0 0.6001,0.0567 0.8617,0.1684 0.2617,0.1117 0.4584,0.2599 0.5882,0.4416 0.1301,0.1817 0.2217,0.3983 0.2733,0.6483 0.0317,0.1633 0.0485,0.4484 0.0485,0.8549 v 3.1867 h -0.8799 v -3.1532 c 0,-0.3583 -0.0335,-0.6268 -0.1018,-0.8034 -0.0683,-0.1766 -0.1899,-0.3183 -0.3634,-0.4249 -0.1732,-0.1052 -0.3784,-0.1584 -0.6117,-0.1584 -0.3733,0 -0.6948,0.1184 -0.9666,0.3566 -0.2716,0.2366 -0.4065,0.6885 -0.4065,1.3518 v 2.8315 z m 7.4716,-0.7849 0.1202,0.7767 c -0.2469,0.0516 -0.4686,0.0782 -0.6619,0.0782 -0.3183,0 -0.565,-0.0498 -0.7415,-0.1516 -0.1749,-0.1018 -0.2983,-0.2333 -0.37,-0.3983 -0.0717,-0.165 -0.1068,-0.5116 -0.1068,-1.04 v -2.99 h -0.65 v -0.68 h 0.65 v -1.2833 l 0.8801,-0.5284 v 1.8117 h 0.8799 v 0.68 h -0.8799 v 3.0399 c 0,0.2517 0.015,0.4133 0.0465,0.485 0.0301,0.0717 0.0802,0.1284 0.1502,0.1718 0.0701,0.0416 0.1698,0.0632 0.3,0.0632 0.0966,0 0.225,-0.0116 0.3832,-0.0349 z m 4.4082,-0.8952 0.9102,0.1202 c -0.1418,0.5284 -0.4068,0.94 -0.7935,1.2317 -0.3866,0.2917 -0.8798,0.4382 -1.4816,0.4382 -0.7566,0 -1.3567,-0.2333 -1.8,-0.6999 -0.4434,-0.4651 -0.665,-1.1199 -0.665,-1.9618 0,-0.87 0.2233,-1.5466 0.6718,-2.0265 0.4481,-0.4816 1.0298,-0.7217 1.745,-0.7217 0.6916,0 1.2566,0.235 1.6948,0.7067 0.4383,0.4716 0.6582,1.135 0.6582,1.9899 0,0.0516 -0.002,0.1301 -0.005,0.2333 h -3.865 c 0.0334,0.5683 0.1933,1.0051 0.4833,1.3067 0.2883,0.3017 0.65,0.4533 1.0817,0.4533 0.3217,0 0.5967,-0.085 0.8234,-0.2548 0.2282,-0.1701 0.4082,-0.4419 0.5415,-0.8153 z m -2.8798,-1.4099 h 2.89 c -0.0386,-0.4366 -0.1503,-0.7631 -0.3317,-0.9817 -0.2784,-0.3381 -0.6418,-0.5082 -1.0868,-0.5082 -0.4034,0 -0.7415,0.1349 -1.0165,0.4051 -0.2735,0.2698 -0.4252,0.6315 -0.455,1.0848 z m 4.8915,3.09 v -5.1899 h 0.79 v 0.7951 c 0.2016,-0.3685 0.3884,-0.6117 0.5599,-0.7285 0.1717,-0.1182 0.36,-0.1766 0.5652,-0.1766 0.2965,0 0.5981,0.0932 0.9048,0.2783 l -0.3132,0.8116 c -0.2135,-0.1199 -0.4266,-0.18 -0.6401,-0.18 -0.1916,0 -0.3634,0.0584 -0.515,0.1735 -0.1517,0.1151 -0.26,0.2749 -0.3249,0.4799 -0.0984,0.3118 -0.1468,0.6534 -0.1468,1.025 v 2.7116 z m 3.3398,0 v -5.1899 h 0.79 v 0.7367 c 0.3801,-0.5649 0.93,-0.8467 1.6483,-0.8467 0.3133,0 0.6001,0.0567 0.8618,0.1684 0.2616,0.1117 0.4583,0.2599 0.5882,0.4416 0.1301,0.1817 0.2216,0.3983 0.2732,0.6483 0.0318,0.1633 0.0485,0.4484 0.0485,0.8549 v 3.1867 h -0.8799 v -3.1532 c 0,-0.3583 -0.0334,-0.6268 -0.1017,-0.8034 -0.0684,-0.1766 -0.19,-0.3183 -0.3634,-0.4249 -0.1732,-0.1052 -0.3785,-0.1584 -0.6118,-0.1584 -0.3733,0 -0.6947,0.1184 -0.9666,0.3566 -0.2715,0.2366 -0.4065,0.6885 -0.4065,1.3518 v 2.8315 z m 9.1015,-1.6801 0.9102,0.1202 c -0.1418,0.5284 -0.4068,0.94 -0.7935,1.2317 -0.3866,0.2917 -0.8798,0.4382 -1.4816,0.4382 -0.7566,0 -1.3567,-0.2333 -1.8,-0.6999 -0.4434,-0.4651 -0.665,-1.1199 -0.665,-1.9618 0,-0.87 0.2233,-1.5466 0.6718,-2.0265 0.4481,-0.4816 1.0298,-0.7217 1.745,-0.7217 0.6916,0 1.2566,0.235 1.6948,0.7067 0.4383,0.4716 0.6582,1.135 0.6582,1.9899 0,0.0516 -0.002,0.1301 -0.005,0.2333 h -3.865 c 0.0334,0.5683 0.1933,1.0051 0.4833,1.3067 0.2883,0.3017 0.65,0.4533 1.0817,0.4533 0.3217,0 0.5967,-0.085 0.8234,-0.2548 0.2282,-0.1701 0.4082,-0.4419 0.5415,-0.8153 z m -2.8798,-1.4099 h 2.89 c -0.0386,-0.4366 -0.1503,-0.7631 -0.3317,-0.9817 -0.2784,-0.3381 -0.6418,-0.5082 -1.0868,-0.5082 -0.4034,0 -0.7415,0.1349 -1.0165,0.4051 -0.2735,0.2698 -0.4252,0.6315 -0.455,1.0848 z m 6.8114,2.3051 0.1202,0.7767 c -0.2469,0.0516 -0.4686,0.0782 -0.6619,0.0782 -0.3183,0 -0.5649,-0.0498 -0.7415,-0.1516 -0.1749,-0.1018 -0.2982,-0.2333 -0.37,-0.3983 -0.0717,-0.165 -0.1068,-0.5116 -0.1068,-1.04 v -2.99 h -0.65 v -0.68 h 0.65 v -1.2833 l 0.8801,-0.5284 v 1.8117 h 0.8799 v 0.68 h -0.8799 v 3.0399 c 0,0.2517 0.0151,0.4133 0.0465,0.485 0.0301,0.0717 0.0802,0.1284 0.1503,0.1718 0.07,0.0416 0.1698,0.0632 0.2999,0.0632 0.0966,0 0.225,-0.0116 0.3832,-0.0349 z"
     style="fill:#1b1918;fill-rule:evenodd"
     id="path9" />
</svg>
